<?xml version="1.0" encoding="utf-8"?>
<!-- Generator: Adobe Illustrator 15.0.0, SVG Export Plug-In . SVG Version: 6.00 Build 0)  -->
<!DOCTYPE svg PUBLIC "-//W3C//DTD SVG 1.1//EN" "http://www.w3.org/Graphics/SVG/1.1/DTD/svg11.dtd">
<svg version="1.1" id="Layer_1" xmlns="http://www.w3.org/2000/svg" xmlns:xlink="http://www.w3.org/1999/xlink" x="0px" y="0px"
	 width="400px" height="400px" viewBox="0 0 400 400" enable-background="new 0 0 400 400" xml:space="preserve">
<rect fill="#64438A" width="400" height="400"/>
<ellipse fill="none" stroke="#E57B6D" stroke-width="3" stroke-miterlimit="10" stroke-dasharray="4,4" cx="213.355" cy="181.459" rx="101.248" ry="65.214"/>
<ellipse fill="none" stroke="#E57B6D" stroke-width="3" stroke-miterlimit="10" stroke-dasharray="4,4" cx="211.873" cy="148.348" rx="50.844" ry="24.249"/>
<path fill="none" stroke="#E57B6D" stroke-width="3" stroke-miterlimit="10" d="M73.67,184.884c0-0.303,0.002-0.605,0.005-0.907"/>
<path fill="none" stroke="#E57B6D" stroke-width="3" stroke-miterlimit="10" stroke-dasharray="3.992,3.992" d="M73.719,182.167
	c1.864-51.794,56.857-93.339,124.425-93.339c67.958,0,123.198,42.029,124.452,94.241"/>
<path fill="none" stroke="#E57B6D" stroke-width="3" stroke-miterlimit="10" d="M322.612,183.977
	c0.003,0.302,0.005,0.604,0.005,0.907"/>
<path fill-rule="evenodd" clip-rule="evenodd" fill="#A74436" d="M174.6,257.596l-20.197-79.742
	c-0.183-0.727-0.944-1.162-1.697-0.971l-8.691,2.201l-0.258-1.02l9.055-2.292l2.634-39.431c0.752-2.898-0.752-4.482-4.161-3.619
	l-141.746,35.9c-3.754,0.95-3.643,3.32-0.168,7.07l19.231,31.539l9.492-2.406l0.258,1.018l-8.692,2.203
	c-0.752,0.189-1.214,0.936-1.03,1.662l20.196,79.742c0.184,0.729,0.945,1.164,1.698,0.973l123.044-31.162
	C174.322,259.068,174.784,258.324,174.6,257.596"/>
<path fill="#F1F1F1" d="M168.554,253.865c0.184,0.727-0.278,1.471-1.031,1.662L44.478,286.691c-0.753,0.189-1.514-0.246-1.698-0.973
	l-20.196-79.742c-0.184-0.729,0.277-1.473,1.03-1.664l123.045-31.162c0.753-0.191,1.514,0.245,1.697,0.972L168.554,253.865z"/>
<path fill-rule="evenodd" clip-rule="evenodd" fill="#424242" d="M134.447,189.051l3.582-0.907c0.409-0.104,0.826,0.146,0.929,0.553
	l0.675,2.663c0.103,0.406-0.146,0.825-0.553,0.929l-3.583,0.907c-0.407,0.104-0.826-0.147-0.928-0.552l-0.674-2.664
	C133.791,189.573,134.039,189.155,134.447,189.051"/>
<path fill-rule="evenodd" clip-rule="evenodd" fill="#424242" d="M135.896,194.089l3.254-0.824c0.499-0.125,1.008,0.179,1.134,0.675
	l0.915,3.609c0.126,0.497-0.178,1.007-0.677,1.134l-3.254,0.824c-0.496,0.125-1.007-0.178-1.133-0.676l-0.914-3.608
	C135.096,194.726,135.399,194.215,135.896,194.089"/>
<path fill-rule="evenodd" clip-rule="evenodd" fill="#424242" d="M137.505,200.444l3.254-0.824c0.5-0.126,1.008,0.177,1.135,0.674
	l0.913,3.609c0.126,0.498-0.178,1.008-0.676,1.135l-3.255,0.824c-0.497,0.125-1.007-0.18-1.133-0.678l-0.914-3.607
	C136.705,201.079,137.008,200.57,137.505,200.444"/>
<path fill-rule="evenodd" clip-rule="evenodd" fill="#424242" d="M139.114,206.799l3.256-0.826c0.498-0.125,1.008,0.178,1.134,0.676
	l0.914,3.607c0.126,0.498-0.178,1.008-0.676,1.133l-3.255,0.826c-0.497,0.125-1.007-0.18-1.133-0.676l-0.913-3.607
	C138.313,207.434,138.617,206.924,139.114,206.799"/>
<path fill-rule="evenodd" clip-rule="evenodd" fill="#424242" d="M140.723,213.15l3.255-0.824c0.498-0.127,1.008,0.178,1.134,0.674
	l0.914,3.607c0.125,0.498-0.179,1.008-0.677,1.135l-3.255,0.824c-0.497,0.125-1.007-0.18-1.133-0.676l-0.914-3.607
	C139.923,213.785,140.227,213.275,140.723,213.15"/>
<path fill-rule="evenodd" clip-rule="evenodd" fill="#424242" d="M142.332,219.504l3.255-0.824c0.499-0.127,1.008,0.176,1.134,0.674
	l0.914,3.607c0.126,0.496-0.178,1.008-0.677,1.133l-3.255,0.824c-0.496,0.127-1.006-0.178-1.132-0.674l-0.913-3.607
	C141.532,220.139,141.836,219.629,142.332,219.504"/>
<path fill-rule="evenodd" clip-rule="evenodd" fill="#424242" d="M128.115,190.656l3.584-0.908c0.406-0.104,0.826,0.146,0.929,0.552
	l0.674,2.663c0.103,0.406-0.146,0.827-0.553,0.929l-3.585,0.908c-0.406,0.103-0.824-0.148-0.927-0.554l-0.674-2.663
	C127.46,191.176,127.708,190.758,128.115,190.656"/>
<path fill-rule="evenodd" clip-rule="evenodd" fill="#424242" d="M123.783,197.157l8.974-2.272c0.532-0.134,1.08,0.192,1.215,0.724
	l0.881,3.48c0.135,0.532-0.191,1.078-0.724,1.213l-8.975,2.274c-0.531,0.135-1.078-0.193-1.212-0.723l-0.882-3.482
	C122.925,197.84,123.251,197.292,123.783,197.157"/>
<path fill-rule="evenodd" clip-rule="evenodd" fill="#424242" d="M129.513,202.469l4.854-1.229c0.531-0.135,1.08,0.189,1.215,0.721
	l0.881,3.48c0.135,0.533-0.192,1.078-0.724,1.213l-4.854,1.23c-0.533,0.135-1.079-0.189-1.213-0.725l-0.881-3.48
	C128.656,203.148,128.98,202.604,129.513,202.469"/>
<path fill-rule="evenodd" clip-rule="evenodd" fill="#424242" d="M126.288,210.047l9.688-2.453c0.532-0.135,1.079,0.188,1.213,0.721
	l0.882,3.482c0.134,0.531-0.192,1.078-0.723,1.211l-9.688,2.455c-0.533,0.135-1.079-0.191-1.213-0.723l-0.881-3.48
	C125.431,210.725,125.755,210.182,126.288,210.047"/>
<path fill-rule="evenodd" clip-rule="evenodd" fill="#424242" d="M134.394,214.754l3.254-0.824c0.499-0.127,1.009,0.178,1.135,0.674
	l0.914,3.607c0.126,0.498-0.178,1.008-0.677,1.135l-3.254,0.824c-0.496,0.125-1.006-0.18-1.133-0.676l-0.914-3.607
	C133.592,215.389,133.896,214.879,134.394,214.754"/>
<path fill-rule="evenodd" clip-rule="evenodd" fill="#424242" d="M136.002,221.107l3.254-0.826c0.499-0.125,1.009,0.178,1.135,0.676
	l0.913,3.607c0.125,0.496-0.179,1.006-0.676,1.133l-3.254,0.824c-0.497,0.125-1.007-0.178-1.132-0.674l-0.915-3.609
	C135.201,221.742,135.506,221.232,136.002,221.107"/>
<path fill-rule="evenodd" clip-rule="evenodd" fill="#424242" d="M122.269,192.136l3.099-0.785c0.408-0.104,0.827,0.146,0.929,0.552
	l0.675,2.663c0.102,0.406-0.146,0.825-0.554,0.929l-3.1,0.784c-0.408,0.104-0.825-0.146-0.928-0.552l-0.674-2.664
	C121.613,192.657,121.861,192.239,122.269,192.136"/>
<path fill-rule="evenodd" clip-rule="evenodd" fill="#424242" d="M116.325,193.641l3.102-0.786c0.407-0.102,0.824,0.147,0.927,0.553
	l0.675,2.664c0.103,0.405-0.146,0.825-0.552,0.928l-3.101,0.785c-0.406,0.104-0.824-0.148-0.928-0.554l-0.674-2.663
	C115.671,194.162,115.918,193.744,116.325,193.641"/>
<path fill-rule="evenodd" clip-rule="evenodd" fill="#424242" d="M110.383,195.146l3.102-0.786c0.406-0.103,0.825,0.146,0.927,0.552
	l0.675,2.664c0.103,0.406-0.147,0.825-0.553,0.928l-3.101,0.786c-0.407,0.102-0.825-0.147-0.928-0.553l-0.674-2.664
	C109.728,195.667,109.976,195.249,110.383,195.146"/>
<path fill-rule="evenodd" clip-rule="evenodd" fill="#424242" d="M104.44,196.651l3.101-0.786c0.407-0.103,0.824,0.146,0.927,0.552
	l0.674,2.664c0.103,0.406-0.145,0.825-0.551,0.928l-3.102,0.786c-0.407,0.102-0.824-0.148-0.927-0.554l-0.675-2.663
	C103.786,197.172,104.034,196.754,104.44,196.651"/>
<path fill-rule="evenodd" clip-rule="evenodd" fill="#424242" d="M98.5,198.156l3.1-0.785c0.405-0.103,0.824,0.146,0.927,0.552
	l0.674,2.664c0.103,0.406-0.146,0.825-0.552,0.927l-3.1,0.785c-0.409,0.104-0.828-0.146-0.931-0.551l-0.674-2.665
	C97.841,198.677,98.091,198.259,98.5,198.156"/>
<path fill-rule="evenodd" clip-rule="evenodd" fill="#424242" d="M92.556,199.661l3.1-0.785c0.409-0.103,0.826,0.146,0.929,0.553
	l0.675,2.663c0.103,0.404-0.145,0.824-0.553,0.928l-3.099,0.785c-0.407,0.104-0.827-0.148-0.93-0.553l-0.674-2.663
	C91.901,200.182,92.15,199.764,92.556,199.661"/>
<path fill-rule="evenodd" clip-rule="evenodd" fill="#424242" d="M86.614,201.166l3.1-0.785c0.408-0.103,0.825,0.146,0.928,0.553
	l0.675,2.664c0.102,0.404-0.145,0.824-0.554,0.928l-3.1,0.785c-0.407,0.102-0.825-0.148-0.928-0.555l-0.674-2.662
	C85.958,201.686,86.207,201.269,86.614,201.166"/>
<path fill-rule="evenodd" clip-rule="evenodd" fill="#424242" d="M80.671,202.672l3.101-0.787c0.408-0.104,0.825,0.146,0.928,0.553
	l0.675,2.664c0.102,0.404-0.146,0.824-0.553,0.93l-3.101,0.783c-0.406,0.104-0.825-0.146-0.928-0.553l-0.674-2.664
	C80.016,203.191,80.265,202.773,80.671,202.672"/>
<path fill-rule="evenodd" clip-rule="evenodd" fill="#424242" d="M74.729,204.176l3.1-0.785c0.407-0.104,0.825,0.146,0.928,0.553
	l0.674,2.662c0.103,0.406-0.145,0.826-0.552,0.93l-3.101,0.785c-0.407,0.102-0.825-0.148-0.928-0.553l-0.674-2.664
	C74.073,204.697,74.322,204.279,74.729,204.176"/>
<path fill-rule="evenodd" clip-rule="evenodd" fill="#424242" d="M68.786,205.68l3.101-0.783c0.408-0.104,0.825,0.145,0.927,0.553
	l0.675,2.662c0.103,0.406-0.146,0.824-0.552,0.93l-3.102,0.785c-0.405,0.102-0.824-0.148-0.927-0.555l-0.674-2.662
	C68.131,206.201,68.38,205.783,68.786,205.68"/>
<path fill-rule="evenodd" clip-rule="evenodd" fill="#424242" d="M62.845,207.186l3.101-0.785c0.407-0.104,0.824,0.146,0.928,0.553
	l0.674,2.662c0.103,0.406-0.146,0.828-0.552,0.93l-3.101,0.785c-0.407,0.102-0.825-0.148-0.927-0.553l-0.674-2.664
	C62.189,207.707,62.438,207.289,62.845,207.186"/>
<path fill-rule="evenodd" clip-rule="evenodd" fill="#424242" d="M56.902,208.691l3.101-0.785c0.407-0.104,0.825,0.145,0.928,0.551
	l0.674,2.664c0.103,0.406-0.146,0.824-0.553,0.93l-3.1,0.785c-0.407,0.102-0.826-0.148-0.928-0.555l-0.675-2.662
	C56.246,209.211,56.495,208.795,56.902,208.691"/>
<path fill-rule="evenodd" clip-rule="evenodd" fill="#424242" d="M50.96,210.195l3.099-0.785c0.407-0.102,0.824,0.146,0.927,0.553
	l0.675,2.664c0.103,0.406-0.146,0.824-0.553,0.928l-3.099,0.785c-0.409,0.104-0.826-0.148-0.928-0.553l-0.675-2.664
	C50.305,210.717,50.551,210.299,50.96,210.195"/>
<path fill-rule="evenodd" clip-rule="evenodd" fill="#424242" d="M45.016,211.701l3.101-0.785c0.408-0.104,0.826,0.145,0.929,0.553
	l0.675,2.662c0.102,0.406-0.147,0.826-0.554,0.93l-3.101,0.785c-0.406,0.104-0.824-0.148-0.927-0.555l-0.674-2.662
	C44.362,212.221,44.61,211.803,45.016,211.701"/>
<path fill-rule="evenodd" clip-rule="evenodd" fill="#424242" d="M38.342,213.391l3.582-0.906c0.409-0.104,0.825,0.146,0.928,0.553
	l0.675,2.662c0.103,0.406-0.145,0.826-0.553,0.93l-3.583,0.906c-0.408,0.104-0.825-0.148-0.928-0.553l-0.675-2.664
	C37.685,213.912,37.934,213.494,38.342,213.391"/>
<path fill-rule="evenodd" clip-rule="evenodd" fill="#424242" d="M117.371,198.781l3.194-0.81c0.487-0.122,0.99,0.178,1.113,0.665
	l0.922,3.639c0.124,0.49-0.176,0.99-0.663,1.115l-3.194,0.809c-0.487,0.123-0.99-0.176-1.113-0.664l-0.922-3.64
	C116.584,199.407,116.883,198.905,117.371,198.781"/>
<path fill-rule="evenodd" clip-rule="evenodd" fill="#424242" d="M110.923,200.414l3.195-0.809c0.489-0.124,0.988,0.176,1.113,0.664
	l0.921,3.64c0.124,0.49-0.173,0.99-0.662,1.115l-3.195,0.811c-0.486,0.121-0.991-0.178-1.114-0.666l-0.922-3.641
	C110.136,201.04,110.437,200.537,110.923,200.414"/>
<path fill-rule="evenodd" clip-rule="evenodd" fill="#424242" d="M104.477,202.047l3.195-0.81c0.488-0.123,0.988,0.177,1.112,0.665
	l0.922,3.639c0.124,0.49-0.173,0.99-0.662,1.113l-3.195,0.811c-0.489,0.123-0.989-0.174-1.113-0.664l-0.922-3.641
	C103.69,202.672,103.988,202.17,104.477,202.047"/>
<path fill-rule="evenodd" clip-rule="evenodd" fill="#424242" d="M98.028,203.68l3.195-0.809c0.489-0.125,0.989,0.176,1.112,0.664
	l0.922,3.641c0.124,0.488-0.172,0.988-0.662,1.113l-3.194,0.809c-0.489,0.125-0.989-0.176-1.113-0.664l-0.922-3.639
	C97.242,204.305,97.54,203.803,98.028,203.68"/>
<path fill-rule="evenodd" clip-rule="evenodd" fill="#424242" d="M91.583,205.313l3.194-0.811c0.487-0.121,0.988,0.178,1.113,0.666
	l0.921,3.639c0.124,0.49-0.175,0.992-0.662,1.115l-3.194,0.811c-0.488,0.123-0.989-0.178-1.113-0.666l-0.921-3.641
	C90.796,205.938,91.094,205.436,91.583,205.313"/>
<path fill-rule="evenodd" clip-rule="evenodd" fill="#424242" d="M85.134,206.945l3.195-0.809c0.487-0.123,0.989,0.176,1.113,0.662
	l0.922,3.641c0.123,0.488-0.176,0.992-0.663,1.115l-3.196,0.811c-0.488,0.123-0.99-0.178-1.114-0.666l-0.921-3.641
	C84.347,207.57,84.646,207.068,85.134,206.945"/>
<path fill-rule="evenodd" clip-rule="evenodd" fill="#424242" d="M78.687,208.578l3.195-0.809c0.487-0.123,0.991,0.174,1.115,0.664
	l0.921,3.639c0.124,0.49-0.177,0.992-0.664,1.117l-3.195,0.809c-0.487,0.123-0.989-0.178-1.113-0.666l-0.922-3.639
	C77.9,209.203,78.2,208.701,78.687,208.578"/>
<path fill-rule="evenodd" clip-rule="evenodd" fill="#424242" d="M72.24,210.211l3.194-0.809c0.489-0.125,0.99,0.176,1.114,0.664
	l0.922,3.639c0.125,0.488-0.173,0.992-0.663,1.117l-3.195,0.807c-0.489,0.125-0.989-0.176-1.112-0.664l-0.922-3.641
	C71.454,210.836,71.751,210.334,72.24,210.211"/>
<path fill-rule="evenodd" clip-rule="evenodd" fill="#424242" d="M65.793,211.844l3.194-0.809c0.487-0.123,0.988,0.176,1.113,0.664
	l0.921,3.641c0.124,0.488-0.174,0.992-0.662,1.115l-3.195,0.809c-0.488,0.123-0.989-0.178-1.113-0.666l-0.921-3.641
	C65.007,212.469,65.304,211.969,65.793,211.844"/>
<path fill-rule="evenodd" clip-rule="evenodd" fill="#424242" d="M59.346,213.477l3.194-0.809c0.487-0.123,0.988,0.176,1.112,0.664
	l0.922,3.641c0.124,0.488-0.174,0.99-0.662,1.115l-3.195,0.809c-0.488,0.123-0.99-0.178-1.113-0.666l-0.923-3.639
	C58.559,214.102,58.857,213.602,59.346,213.477"/>
<path fill-rule="evenodd" clip-rule="evenodd" fill="#424242" d="M52.897,215.109l3.197-0.809c0.486-0.123,0.988,0.176,1.111,0.664
	l0.922,3.641c0.124,0.488-0.174,0.99-0.661,1.115l-3.196,0.809c-0.488,0.123-0.989-0.178-1.113-0.666l-0.923-3.641
	C52.112,215.734,52.41,215.234,52.897,215.109"/>
<path fill-rule="evenodd" clip-rule="evenodd" fill="#424242" d="M46.451,216.742l3.194-0.809c0.488-0.123,0.99,0.176,1.113,0.664
	l0.922,3.639c0.124,0.49-0.175,0.992-0.663,1.117l-3.194,0.809c-0.488,0.123-0.989-0.178-1.113-0.666l-0.922-3.641
	C45.665,217.367,45.962,216.865,46.451,216.742"/>
<path fill-rule="evenodd" clip-rule="evenodd" fill="#424242" d="M39.792,218.43l3.256-0.824c0.497-0.127,1.007,0.178,1.132,0.674
	l0.914,3.609c0.126,0.498-0.178,1.01-0.674,1.135l-3.255,0.824c-0.498,0.127-1.008-0.178-1.134-0.678l-0.913-3.607
	C38.991,219.066,39.295,218.557,39.792,218.43"/>
<path fill-rule="evenodd" clip-rule="evenodd" fill="#424242" d="M41.465,224.768l6.697-1.695c0.532-0.135,1.077,0.189,1.212,0.723
	l0.881,3.48c0.135,0.531-0.189,1.078-0.722,1.213l-6.697,1.695c-0.534,0.137-1.079-0.189-1.213-0.723l-0.883-3.48
	C40.607,225.449,40.931,224.902,41.465,224.768"/>
<path fill-rule="evenodd" clip-rule="evenodd" fill="#424242" d="M43.074,231.123l7.963-2.018c0.532-0.135,1.078,0.188,1.212,0.723
	l0.883,3.48c0.134,0.533-0.191,1.078-0.724,1.213l-7.962,2.016c-0.532,0.135-1.079-0.189-1.213-0.721l-0.881-3.482
	C42.216,231.801,42.542,231.256,43.074,231.123"/>
<path fill-rule="evenodd" clip-rule="evenodd" fill="#424242" d="M44.683,237.475l11.415-2.893c0.532-0.135,1.078,0.191,1.212,0.723
	l0.882,3.482c0.135,0.531-0.191,1.076-0.723,1.211l-11.416,2.891c-0.533,0.137-1.077-0.189-1.212-0.721l-0.882-3.482
	C43.825,238.154,44.149,237.609,44.683,237.475"/>
<path fill-rule="evenodd" clip-rule="evenodd" fill="#424242" d="M46.292,243.826l4.739-1.199c0.531-0.135,1.079,0.189,1.215,0.723
	l0.881,3.48c0.135,0.531-0.192,1.078-0.725,1.211l-4.739,1.201c-0.534,0.137-1.078-0.188-1.213-0.721l-0.882-3.482
	C45.434,244.506,45.757,243.961,46.292,243.826"/>
<path fill-rule="evenodd" clip-rule="evenodd" fill="#424242" d="M50.884,222.383l3.422-0.867c0.523-0.133,1.059,0.188,1.19,0.709
	l0.89,3.516c0.133,0.523-0.186,1.061-0.709,1.193l-3.421,0.865c-0.522,0.133-1.059-0.188-1.19-0.711l-0.892-3.516
	C50.043,223.051,50.362,222.514,50.884,222.383"/>
<path fill-rule="evenodd" clip-rule="evenodd" fill="#424242" d="M57.454,220.719l3.422-0.867c0.521-0.133,1.059,0.188,1.19,0.709
	l0.89,3.516c0.133,0.523-0.187,1.061-0.709,1.191l-3.422,0.867c-0.522,0.133-1.06-0.188-1.192-0.711l-0.89-3.516
	C56.611,221.387,56.931,220.852,57.454,220.719"/>
<path fill-rule="evenodd" clip-rule="evenodd" fill="#424242" d="M64.022,219.057l3.421-0.867c0.523-0.133,1.059,0.186,1.191,0.707
	l0.89,3.516c0.132,0.523-0.186,1.061-0.71,1.193l-3.421,0.865c-0.522,0.133-1.059-0.188-1.192-0.711l-0.89-3.516
	C63.179,219.723,63.5,219.188,64.022,219.057"/>
<path fill-rule="evenodd" clip-rule="evenodd" fill="#424242" d="M70.59,217.391l3.422-0.865c0.523-0.133,1.059,0.188,1.19,0.709
	l0.891,3.514c0.132,0.523-0.187,1.061-0.709,1.193l-3.421,0.867c-0.523,0.131-1.059-0.189-1.192-0.711l-0.889-3.516
	C69.748,218.061,70.068,217.523,70.59,217.391"/>
<path fill-rule="evenodd" clip-rule="evenodd" fill="#424242" d="M77.159,215.729l3.421-0.865c0.523-0.135,1.059,0.186,1.191,0.707
	l0.891,3.516c0.133,0.523-0.187,1.059-0.71,1.191l-3.42,0.867c-0.524,0.133-1.059-0.188-1.191-0.711l-0.89-3.516
	C76.317,216.396,76.635,215.861,77.159,215.729"/>
<path fill-rule="evenodd" clip-rule="evenodd" fill="#424242" d="M83.727,214.064l3.421-0.867c0.523-0.131,1.06,0.188,1.192,0.709
	l0.891,3.514c0.132,0.525-0.188,1.063-0.71,1.195l-3.421,0.865c-0.524,0.133-1.06-0.188-1.192-0.711l-0.89-3.516
	C82.884,214.732,83.204,214.197,83.727,214.064"/>
<path fill-rule="evenodd" clip-rule="evenodd" fill="#424242" d="M90.294,212.4l3.421-0.865c0.524-0.133,1.06,0.188,1.191,0.709
	l0.891,3.514c0.133,0.523-0.186,1.061-0.71,1.193l-3.42,0.867c-0.522,0.131-1.059-0.188-1.191-0.713l-0.891-3.514
	C89.453,213.07,89.773,212.533,90.294,212.4"/>
<path fill-rule="evenodd" clip-rule="evenodd" fill="#424242" d="M96.864,210.738l3.42-0.867c0.524-0.133,1.06,0.188,1.191,0.709
	l0.891,3.514c0.132,0.523-0.187,1.061-0.711,1.193l-3.419,0.865c-0.525,0.133-1.061-0.186-1.193-0.709l-0.89-3.516
	C96.02,211.406,96.34,210.869,96.864,210.738"/>
<path fill-rule="evenodd" clip-rule="evenodd" fill="#424242" d="M103.432,209.074l3.422-0.867c0.521-0.133,1.059,0.188,1.191,0.709
	l0.89,3.516c0.132,0.523-0.188,1.059-0.709,1.191l-3.422,0.867c-0.523,0.133-1.06-0.188-1.192-0.711l-0.89-3.516
	C102.59,209.742,102.909,209.205,103.432,209.074"/>
<path fill-rule="evenodd" clip-rule="evenodd" fill="#424242" d="M110,207.41l3.421-0.867c0.522-0.133,1.059,0.189,1.19,0.709
	l0.891,3.516c0.132,0.523-0.187,1.061-0.709,1.191l-3.422,0.867c-0.522,0.133-1.058-0.188-1.191-0.709l-0.889-3.516
	C109.159,208.078,109.478,207.543,110,207.41"/>
<path fill-rule="evenodd" clip-rule="evenodd" fill="#424242" d="M116.568,205.748l3.422-0.867c0.522-0.133,1.059,0.188,1.191,0.709
	l0.89,3.514c0.134,0.523-0.188,1.061-0.709,1.193l-3.422,0.867c-0.521,0.131-1.058-0.188-1.19-0.711l-0.891-3.516
	C115.726,206.416,116.047,205.879,116.568,205.748"/>
<path fill-rule="evenodd" clip-rule="evenodd" fill="#424242" d="M123.136,204.084l3.422-0.867c0.524-0.133,1.06,0.188,1.191,0.709
	l0.891,3.516c0.132,0.521-0.188,1.059-0.711,1.191l-3.423,0.865c-0.522,0.133-1.058-0.186-1.19-0.709l-0.89-3.516
	C122.294,204.752,122.614,204.215,123.136,204.084"/>
<path fill-rule="evenodd" clip-rule="evenodd" fill="#424242" d="M54.322,228.273l3.42-0.867c0.523-0.133,1.059,0.186,1.191,0.711
	l0.891,3.514c0.133,0.521-0.187,1.059-0.71,1.191l-3.42,0.865c-0.524,0.135-1.059-0.188-1.191-0.709l-0.891-3.516
	C53.479,228.939,53.798,228.406,54.322,228.273"/>
<path fill-rule="evenodd" clip-rule="evenodd" fill="#424242" d="M60.889,226.609l3.423-0.867c0.521-0.131,1.057,0.188,1.19,0.711
	l0.89,3.514c0.132,0.523-0.188,1.061-0.709,1.191l-3.422,0.867c-0.522,0.133-1.058-0.189-1.191-0.711l-0.89-3.514
	C60.048,227.275,60.367,226.742,60.889,226.609"/>
<path fill-rule="evenodd" clip-rule="evenodd" fill="#424242" d="M67.458,224.945l3.422-0.867c0.522-0.131,1.058,0.188,1.191,0.711
	l0.89,3.516c0.132,0.521-0.188,1.059-0.71,1.189l-3.421,0.867c-0.522,0.133-1.06-0.188-1.191-0.709l-0.891-3.516
	C66.616,225.613,66.935,225.08,67.458,224.945"/>
<path fill-rule="evenodd" clip-rule="evenodd" fill="#424242" d="M74.026,223.283l3.422-0.867c0.522-0.133,1.059,0.186,1.19,0.709
	l0.891,3.516c0.131,0.521-0.187,1.059-0.709,1.191l-3.422,0.867c-0.521,0.131-1.058-0.188-1.191-0.711l-0.89-3.514
	C73.184,223.949,73.504,223.416,74.026,223.283"/>
<path fill-rule="evenodd" clip-rule="evenodd" fill="#424242" d="M80.595,221.619l3.422-0.867c0.522-0.133,1.058,0.186,1.191,0.711
	l0.89,3.514c0.132,0.521-0.187,1.061-0.71,1.191l-3.422,0.867c-0.523,0.131-1.059-0.188-1.191-0.711l-0.889-3.514
	C79.753,222.287,80.073,221.75,80.595,221.619"/>
<path fill-rule="evenodd" clip-rule="evenodd" fill="#424242" d="M87.164,219.955l3.421-0.865c0.523-0.133,1.058,0.186,1.191,0.709
	l0.891,3.514c0.131,0.523-0.187,1.059-0.71,1.191l-3.421,0.867c-0.523,0.133-1.059-0.188-1.191-0.709l-0.891-3.516
	C86.321,220.623,86.641,220.088,87.164,219.955"/>
<path fill-rule="evenodd" clip-rule="evenodd" fill="#424242" d="M93.732,218.293l3.42-0.867c0.524-0.133,1.059,0.186,1.192,0.709
	l0.89,3.516c0.132,0.521-0.186,1.059-0.711,1.191l-3.419,0.867c-0.524,0.133-1.06-0.189-1.193-0.711l-0.889-3.516
	C92.888,218.959,93.208,218.424,93.732,218.293"/>
<path fill-rule="evenodd" clip-rule="evenodd" fill="#424242" d="M100.3,216.629l3.42-0.867c0.522-0.133,1.059,0.186,1.191,0.709
	l0.891,3.516c0.132,0.521-0.188,1.059-0.71,1.191l-3.421,0.865c-0.523,0.133-1.06-0.186-1.192-0.709l-0.89-3.516
	C99.456,217.295,99.777,216.762,100.3,216.629"/>
<path fill-rule="evenodd" clip-rule="evenodd" fill="#424242" d="M106.869,214.965l3.421-0.867c0.522-0.133,1.058,0.186,1.19,0.709
	l0.891,3.516c0.132,0.523-0.188,1.061-0.71,1.191l-3.42,0.867c-0.523,0.133-1.06-0.188-1.191-0.711l-0.89-3.514
	C106.025,215.631,106.345,215.098,106.869,214.965"/>
<path fill-rule="evenodd" clip-rule="evenodd" fill="#424242" d="M113.436,213.301l3.421-0.865c0.524-0.133,1.06,0.184,1.192,0.709
	l0.89,3.516c0.133,0.521-0.186,1.059-0.71,1.191l-3.422,0.865c-0.522,0.133-1.06-0.188-1.192-0.709l-0.89-3.516
	C112.592,213.969,112.914,213.434,113.436,213.301"/>
<path fill-rule="evenodd" clip-rule="evenodd" fill="#424242" d="M120.005,211.637l3.42-0.865c0.525-0.133,1.061,0.184,1.193,0.709
	l0.891,3.516c0.132,0.521-0.188,1.059-0.712,1.191l-3.42,0.865c-0.523,0.133-1.06-0.188-1.192-0.709l-0.89-3.516
	C119.162,212.305,119.482,211.77,120.005,211.637"/>
<path fill-rule="evenodd" clip-rule="evenodd" fill="#424242" d="M59.371,233.754l3.42-0.867c0.521-0.131,1.059,0.188,1.191,0.713
	l0.891,3.512c0.132,0.523-0.188,1.061-0.71,1.191l-3.421,0.867c-0.524,0.133-1.059-0.186-1.192-0.711l-0.889-3.512
	C58.527,234.424,58.847,233.887,59.371,233.754"/>
<path fill-rule="evenodd" clip-rule="evenodd" fill="#424242" d="M65.938,232.09l3.421-0.865c0.522-0.133,1.06,0.186,1.192,0.711
	l0.89,3.514c0.132,0.523-0.187,1.059-0.71,1.191l-3.421,0.865c-0.523,0.133-1.058-0.186-1.191-0.709l-0.89-3.514
	C65.096,232.76,65.415,232.223,65.938,232.09"/>
<path fill-rule="evenodd" clip-rule="evenodd" fill="#424242" d="M72.506,230.428l3.421-0.867c0.523-0.133,1.058,0.188,1.192,0.713
	l0.89,3.512c0.132,0.523-0.187,1.059-0.71,1.191l-3.421,0.865c-0.521,0.133-1.058-0.186-1.19-0.707l-0.89-3.516
	C71.664,231.096,71.984,230.559,72.506,230.428"/>
<path fill-rule="evenodd" clip-rule="evenodd" fill="#424242" d="M79.074,228.764l3.421-0.867c0.523-0.131,1.06,0.188,1.192,0.711
	l0.89,3.514c0.132,0.523-0.188,1.061-0.71,1.191l-3.422,0.867c-0.522,0.133-1.058-0.188-1.19-0.709l-0.89-3.514
	C78.233,229.432,78.552,228.896,79.074,228.764"/>
<path fill-rule="evenodd" clip-rule="evenodd" fill="#424242" d="M85.643,227.1l3.422-0.865c0.523-0.133,1.059,0.188,1.191,0.711
	l0.89,3.514c0.132,0.523-0.186,1.059-0.709,1.191l-3.422,0.865c-0.524,0.133-1.06-0.186-1.192-0.709l-0.89-3.514
	C84.8,227.77,85.119,227.232,85.643,227.1"/>
<path fill-rule="evenodd" clip-rule="evenodd" fill="#424242" d="M92.21,225.438l3.421-0.867c0.524-0.133,1.061,0.186,1.193,0.711
	l0.89,3.514c0.133,0.521-0.187,1.059-0.711,1.191l-3.42,0.865c-0.521,0.133-1.058-0.186-1.189-0.709l-0.891-3.514
	C91.369,226.105,91.689,225.568,92.21,225.438"/>
<path fill-rule="evenodd" clip-rule="evenodd" fill="#424242" d="M98.779,223.773l3.42-0.867c0.524-0.133,1.06,0.188,1.193,0.711
	l0.889,3.514c0.133,0.523-0.186,1.059-0.71,1.191l-3.421,0.867c-0.522,0.133-1.059-0.189-1.191-0.711l-0.89-3.514
	C97.937,224.441,98.256,223.906,98.779,223.773"/>
<path fill-rule="evenodd" clip-rule="evenodd" fill="#424242" d="M105.345,222.111l3.424-0.869c0.521-0.131,1.057,0.188,1.19,0.713
	l0.89,3.512c0.133,0.523-0.188,1.061-0.709,1.191l-3.424,0.867c-0.521,0.133-1.057-0.188-1.188-0.709l-0.89-3.514
	C104.505,222.777,104.824,222.242,105.345,222.111"/>
<path fill-rule="evenodd" clip-rule="evenodd" fill="#424242" d="M111.916,220.445l3.42-0.865c0.523-0.133,1.06,0.186,1.193,0.711
	l0.89,3.512c0.132,0.523-0.188,1.061-0.711,1.193l-3.419,0.865c-0.524,0.133-1.06-0.188-1.192-0.709l-0.889-3.514
	C111.073,221.113,111.393,220.578,111.916,220.445"/>
<path fill-rule="evenodd" clip-rule="evenodd" fill="#424242" d="M118.484,218.781l3.422-0.865c0.523-0.133,1.058,0.186,1.191,0.711
	l0.89,3.514c0.132,0.521-0.187,1.059-0.71,1.191l-3.42,0.865c-0.523,0.133-1.059-0.188-1.191-0.709l-0.89-3.514
	C117.643,219.449,117.961,218.914,118.484,218.781"/>
<path fill-rule="evenodd" clip-rule="evenodd" fill="#424242" d="M125.07,217.115l6.186-1.568c0.532-0.135,1.078,0.191,1.212,0.723
	l0.882,3.482c0.134,0.533-0.19,1.078-0.722,1.213l-6.186,1.566c-0.533,0.135-1.079-0.189-1.213-0.723l-0.883-3.482
	C124.212,217.795,124.537,217.25,125.07,217.115"/>
<path fill-rule="evenodd" clip-rule="evenodd" fill="#424242" d="M54.304,241.797l3.419-0.865c0.523-0.133,1.06,0.186,1.193,0.713
	l0.89,3.512c0.132,0.523-0.188,1.059-0.711,1.191l-3.42,0.865c-0.523,0.133-1.06-0.186-1.192-0.707l-0.89-3.514
	C53.46,242.467,53.78,241.93,54.304,241.797"/>
<path fill-rule="evenodd" clip-rule="evenodd" fill="#424242" d="M60.871,240.135l3.421-0.867c0.523-0.133,1.059,0.188,1.193,0.713
	l0.89,3.512c0.132,0.523-0.188,1.059-0.71,1.191l-3.421,0.867c-0.522,0.131-1.058-0.188-1.191-0.709l-0.889-3.514
	C60.029,240.803,60.35,240.268,60.871,240.135"/>
<path fill-rule="evenodd" clip-rule="evenodd" fill="#424242" d="M67.44,238.471l3.42-0.867c0.523-0.131,1.06,0.188,1.192,0.713
	l0.89,3.514c0.132,0.521-0.188,1.057-0.71,1.189l-3.421,0.867c-0.521,0.131-1.059-0.186-1.191-0.709l-0.891-3.514
	C66.597,239.141,66.918,238.604,67.44,238.471"/>
<path fill-rule="evenodd" clip-rule="evenodd" fill="#424242" d="M74.007,236.807l29.637-7.506c0.522-0.131,1.061,0.188,1.193,0.713
	l0.89,3.514c0.133,0.521-0.188,1.057-0.712,1.189l-29.637,7.506c-0.52,0.133-1.059-0.186-1.19-0.709L73.297,238
	C73.165,237.477,73.486,236.939,74.007,236.807"/>
<path fill-rule="evenodd" clip-rule="evenodd" fill="#424242" d="M106.85,228.488l3.421-0.865c0.522-0.131,1.061,0.188,1.193,0.711
	l0.89,3.514c0.132,0.523-0.19,1.059-0.712,1.191l-3.42,0.865c-0.524,0.133-1.06-0.184-1.193-0.709l-0.89-3.514
	C106.007,229.158,106.326,228.623,106.85,228.488"/>
<path fill-rule="evenodd" clip-rule="evenodd" fill="#424242" d="M113.417,226.826l3.423-0.867c0.521-0.131,1.058,0.188,1.19,0.711
	l0.89,3.516c0.133,0.523-0.188,1.057-0.709,1.188l-3.423,0.867c-0.522,0.133-1.058-0.184-1.19-0.707l-0.891-3.516
	C112.576,227.494,112.895,226.959,113.417,226.826"/>
<path fill-rule="evenodd" clip-rule="evenodd" fill="#424242" d="M120.003,225.158l6.186-1.566c0.531-0.135,1.076,0.189,1.211,0.725
	l0.881,3.479c0.135,0.533-0.19,1.078-0.721,1.213l-6.187,1.566c-0.533,0.135-1.076-0.189-1.211-0.723l-0.88-3.48
	C119.146,225.838,119.47,225.293,120.003,225.158"/>
<path fill-rule="evenodd" clip-rule="evenodd" fill="#424242" d="M129.672,222.709l3.255-0.824c0.495-0.125,1.007,0.178,1.133,0.676
	l0.914,3.607c0.125,0.496-0.18,1.006-0.675,1.133l-3.255,0.824c-0.497,0.125-1.008-0.178-1.134-0.674l-0.914-3.607
	C128.87,223.346,129.175,222.836,129.672,222.709"/>
<path fill-rule="evenodd" clip-rule="evenodd" fill="#D3D3D3" d="M82.324,246.904l32.978-8.354c0.502-0.127,1.049,0.303,1.214,0.957
	l5.221,20.615c0.166,0.65-0.11,1.293-0.613,1.42l-32.977,8.354c-0.502,0.125-1.051-0.305-1.216-0.957l-5.221-20.617
	C81.544,247.668,81.822,247.031,82.324,246.904"/>
<path fill-rule="evenodd" clip-rule="evenodd" fill="#3C3C3B" d="M145.239,128.991L3.493,164.89c-3.754,0.95-3.643,3.32-0.168,7.07
	l19.231,31.538l9.492-2.404l1.172,4.629c0.103,0.406,0.517,0.65,0.927,0.547l104.181-26.386c0.409-0.104,0.657-0.516,0.555-0.921
	l-1.172-4.63l9.055-2.292l2.634-39.431C150.152,129.711,148.647,128.127,145.239,128.991"/>
<polygon fill-rule="evenodd" clip-rule="evenodd" fill="#45B29D" points="143.694,134.343 141.689,168.818 25.938,198.133 
	8.131,168.677 "/>
<polygon fill-rule="evenodd" clip-rule="evenodd" fill="#4FC1AB" points="8.131,168.677 141.689,168.818 143.694,134.343 "/>
<rect x="267.972" y="182.802" transform="matrix(-0.9824 0.187 -0.187 -0.9824 659.3326 319.3219)" fill="#A74436" width="93.262" height="15.923"/>
<polygon fill="#A74436" points="377.217,259.5 281.627,277.699 266.809,207.967 365.376,189.201 "/>
<polygon fill="#A74436" points="281.532,277.203 285.551,298.307 381.636,280.014 377.121,259.004 "/>
<polygon fill="#A74436" points="266.808,207.967 286.849,195.661 288.408,203.855 "/>
<polyline fill="#A74436" points="343.775,193.314 365.377,189.201 342.216,185.121 "/>
<polygon fill="#A74436" points="286.849,195.661 267.306,191.664 270.032,205.986 "/>
<polygon fill="#A74436" points="342.216,185.121 358.922,174.221 361.649,188.545 "/>
<path fill="#A74436" d="M297.782,202.07l2.258-0.43l2.162,11.357c1.863,9.787,11.342,16.232,21.128,14.369l5.617-1.068
	c9.787-1.863,16.233-11.342,14.37-21.127l-2.163-11.359l2.258-0.43l2.163,11.359c2.101,11.031-5.166,21.713-16.197,23.814
	l-5.618,1.068c-11.031,2.102-21.715-5.164-23.815-16.197L297.782,202.07z"/>
<path fill="#A74436" d="M295.107,202.58l2.139-0.408l2.047,10.756c1.765,9.268,10.74,15.373,20.008,13.607l5.319-1.012
	c9.268-1.764,15.372-10.74,13.608-20.008l-2.049-10.756l2.139-0.407l2.048,10.756c1.988,10.445-4.893,20.563-15.339,22.551
	l-5.32,1.014c-10.445,1.988-20.563-4.893-22.552-15.338L295.107,202.58z"/>
<rect x="296.979" y="220.717" transform="matrix(-0.9824 0.187 -0.187 -0.9824 714.5566 388.3495)" fill="#A74436" width="83.956" height="14.335"/>
<polygon fill="#A74436" points="395.323,289.764 309.272,306.145 295.932,243.371 384.665,226.479 "/>
<polygon fill="#A74436" points="309.188,305.699 312.804,324.697 399.303,308.229 395.238,289.316 "/>
<polygon fill="#A74436" points="295.932,243.371 313.973,232.293 315.377,239.67 "/>
<polyline fill="#A74436" points="365.219,230.18 384.665,226.479 363.815,222.805 "/>
<polygon fill="#A74436" points="313.973,232.293 296.38,228.695 298.835,241.588 "/>
<polygon fill="#A74436" points="363.815,222.805 378.854,212.992 381.31,225.887 "/>
<path fill="#A74436" d="M323.298,238.162l1.811-0.346l1.952,10.252c1.693,8.896,10.309,14.756,19.205,13.063l5.07-0.965
	c8.896-1.693,14.756-10.309,13.062-19.205l-1.951-10.252l1.811-0.346l1.952,10.252c1.884,9.895-4.634,19.477-14.528,21.361
	l-5.07,0.965c-9.895,1.885-19.478-4.633-21.36-14.527L323.298,238.162z"/>
<path fill="#A74436" d="M321.515,238.5l1.71-0.324l1.844,9.682c1.601,8.402,9.736,13.938,18.138,12.336l4.79-0.91
	c8.401-1.6,13.936-9.736,12.336-18.139l-1.844-9.684l1.711-0.324l1.844,9.682c1.778,9.346-4.376,18.395-13.722,20.174l-4.789,0.912
	c-9.345,1.779-18.395-4.377-20.175-13.721L321.515,238.5z"/>
<path fill="#A74436" d="M328.662,250.404l0.221,0.15L328.662,250.404c-1.935,1.896-1.304,6.447-0.686,9.205
	c-5.737,0.256-10.4,4.887-10.595,10.723c-0.203,6.131,4.602,11.266,10.731,11.469c6.13,0.205,11.265-4.602,11.468-10.73
	c0.182-5.471-3.627-10.146-8.807-11.234c1.14-1.99,2.461-4.996,2.7-7.236c-0.175-0.109-0.361-0.1-0.45-0.125
	c-0.172,2.221-1.562,5.283-2.714,7.275c-0.477-0.08-0.964-0.131-1.46-0.148c-0.136-0.004-0.271-0.002-0.405-0.002
	c-0.615-2.734-1.313-7.25,0.649-8.895 M330.114,263.186c-0.025,0.762-0.664,1.359-1.428,1.334c-0.763-0.023-1.36-0.664-1.335-1.426
	c0.022-0.684,0.537-1.23,1.191-1.32c0.002,0.008,0.005,0.018,0.007,0.021c0.002,0.195,0.069,0.324,0.2,0.383
	c0.063,0.027,0.128,0.031,0.189,0.02c0.162-0.031,0.306-0.168,0.37-0.23c0.016-0.016,0.034-0.037,0.052-0.055
	C329.821,262.148,330.133,262.633,330.114,263.186"/>
<path fill="#A74436" d="M327.343,258.965c-6.13-0.203-11.265,4.602-11.468,10.73c-0.203,6.131,4.601,11.266,10.73,11.469
	c6.131,0.203,11.265-4.602,11.469-10.73C338.277,264.303,333.473,259.168,327.343,258.965 M327.18,263.883
	c-0.763-0.025-1.361-0.664-1.335-1.426c0.024-0.764,0.664-1.361,1.427-1.336s1.36,0.664,1.336,1.428
	C328.582,263.311,327.942,263.908,327.18,263.883"/>
<path fill="#A74436" d="M327.433,261.561c-0.062,0.012-0.126,0.008-0.19-0.02c-0.131-0.059-0.197-0.188-0.2-0.383
	c-0.218-0.699-2.73-9.033,0.274-11.551c0.095-0.08,0.238-0.068,0.319,0.027c0.08,0.098,0.067,0.24-0.028,0.32
	c-2.754,2.307-0.308,10.498-0.132,11.07c0.968-0.863,4.542-7.23,4.01-10.305c-0.178-1.023-0.793-1.521-1.883-1.523
	c-0.126-0.002-0.227-0.104-0.227-0.229s0.104-0.227,0.228-0.227c1.089,0.004,1.816,0.443,2.164,1.309
	c1.189,2.959-2.765,10.121-3.965,11.279C327.737,261.393,327.596,261.529,327.433,261.561"/>
<text transform="matrix(0.9994 0.0332 -0.0332 0.9994 320.1172 276.4551)" fill="#A74436" font-family="'OpenSans-Bold'" font-size="14.9715">%</text>
<rect x="262.102" y="179.117" transform="matrix(-0.9824 0.187 -0.187 -0.9824 647.0059 313.1157)" fill="#263A45" width="93.262" height="15.923"/>
<polygon fill="#334D5C" points="371.347,255.816 275.757,274.016 260.938,204.283 359.506,185.517 "/>
<polygon fill="#3A5866" points="275.662,273.518 279.681,294.623 375.766,276.33 371.252,255.32 "/>
<polygon fill="#617985" points="260.938,204.283 280.979,191.977 282.538,200.17 "/>
<polyline fill="#617985" points="337.905,189.629 359.506,185.517 336.346,181.436 "/>
<polygon fill="#3A5866" points="280.979,191.977 261.436,187.979 264.162,202.303 "/>
<polygon fill="#3A5866" points="336.346,181.436 353.052,170.537 355.779,184.86 "/>
<path fill="#263A45" d="M291.912,198.386l2.258-0.43l2.162,11.358c1.863,9.787,11.342,16.232,21.128,14.369l5.617-1.068
	c9.787-1.865,16.233-11.342,14.37-21.129l-2.163-11.358l2.258-0.43l2.163,11.358c2.101,11.031-5.166,21.715-16.197,23.814
	l-5.618,1.07c-11.031,2.1-21.716-5.166-23.815-16.197L291.912,198.386z"/>
<path fill="#FCF4DB" d="M289.237,198.895l2.138-0.407l2.048,10.756c1.765,9.268,10.74,15.371,20.008,13.607l5.319-1.014
	c9.268-1.764,15.372-10.738,13.607-20.006l-2.048-10.757l2.139-0.407l2.048,10.755c1.988,10.447-4.893,20.564-15.339,22.553
	l-5.32,1.014c-10.445,1.988-20.563-4.893-22.552-15.338L289.237,198.895z"/>
<rect x="291.109" y="217.033" transform="matrix(-0.9824 0.187 -0.187 -0.9824 702.2271 382.1498)" fill="#786526" width="83.956" height="14.333"/>
<polygon fill="#EFC94C" points="389.453,286.078 303.402,302.461 290.062,239.688 378.794,222.793 "/>
<polygon fill="#F2D470" points="303.317,302.014 306.934,321.012 393.432,304.545 389.368,285.631 "/>
<polygon fill="#F2D470" points="290.062,239.688 308.103,228.609 309.507,235.984 "/>
<polyline fill="#F2D470" points="359.349,226.496 378.795,222.793 357.945,219.119 "/>
<polygon fill="#B59F54" points="308.103,228.609 290.51,225.01 292.965,237.904 "/>
<polygon fill="#B59F54" points="357.945,219.119 372.984,209.309 375.439,222.203 "/>
<path fill="#B59F54" d="M317.428,234.477l1.811-0.344l1.952,10.252c1.693,8.895,10.31,14.754,19.205,13.061l5.07-0.965
	c8.896-1.693,14.756-10.309,13.062-19.205l-1.951-10.252l1.811-0.346l1.952,10.254c1.884,9.895-4.634,19.477-14.528,21.359
	l-5.07,0.967c-9.895,1.883-19.478-4.635-21.36-14.529L317.428,234.477z"/>
<path fill="#FCF4DB" d="M315.645,234.816l1.71-0.326l1.844,9.684c1.6,8.402,9.736,13.936,18.138,12.336l4.79-0.912
	c8.401-1.6,13.936-9.736,12.336-18.139l-1.844-9.682l1.711-0.326l1.844,9.684c1.778,9.344-4.376,18.395-13.722,20.174l-4.789,0.912
	c-9.345,1.779-18.396-4.377-20.175-13.723L315.645,234.816z"/>
<path fill="#B59F54" d="M325.054,255.711l0.22,0.15L325.054,255.711c-1.936,1.896-1.304,6.449-0.687,9.207
	c-5.736,0.254-10.401,4.885-10.595,10.723c-0.203,6.129,4.601,11.264,10.731,11.467c6.13,0.203,11.265-4.602,11.468-10.73
	c0.183-5.473-3.628-10.146-8.807-11.234c1.141-1.99,2.461-4.996,2.7-7.236c-0.174-0.109-0.361-0.1-0.451-0.125
	c-0.171,2.221-1.56,5.283-2.712,7.275c-0.478-0.08-0.964-0.131-1.461-0.148c-0.136-0.004-0.271-0.004-0.404-0.004
	c-0.616-2.732-1.314-7.248,0.648-8.893 M326.505,268.492c-0.025,0.762-0.665,1.361-1.427,1.334
	c-0.763-0.025-1.361-0.664-1.336-1.426c0.022-0.684,0.537-1.229,1.191-1.32c0.001,0.006,0.005,0.018,0.007,0.021
	c0.002,0.195,0.069,0.324,0.2,0.383c0.063,0.027,0.128,0.031,0.189,0.02c0.163-0.031,0.305-0.168,0.37-0.23
	c0.016-0.016,0.034-0.037,0.052-0.055C326.213,267.455,326.522,267.939,326.505,268.492"/>
<path fill="#FFFFFF" d="M323.734,264.271c-6.131-0.203-11.265,4.602-11.469,10.73c-0.203,6.131,4.602,11.266,10.731,11.469
	s11.265-4.602,11.468-10.73C334.669,269.609,329.864,264.475,323.734,264.271 M323.57,269.189c-0.763-0.025-1.36-0.664-1.335-1.428
	c0.025-0.762,0.664-1.359,1.427-1.334s1.361,0.664,1.336,1.426C324.973,268.617,324.334,269.215,323.57,269.189"/>
<path fill="#FFFFFF" d="M323.823,266.867c-0.062,0.012-0.126,0.008-0.189-0.02c-0.131-0.059-0.198-0.188-0.2-0.383
	c-0.219-0.699-2.731-9.033,0.273-11.551c0.096-0.08,0.238-0.068,0.319,0.027c0.081,0.098,0.068,0.24-0.027,0.32
	c-2.755,2.307-0.308,10.498-0.132,11.07c0.967-0.863,4.541-7.23,4.009-10.305c-0.177-1.023-0.793-1.521-1.883-1.523
	c-0.125-0.002-0.227-0.104-0.226-0.229c0-0.125,0.103-0.227,0.227-0.227c1.089,0.004,1.817,0.443,2.165,1.309
	c1.188,2.959-2.766,10.121-3.966,11.279C324.129,266.699,323.985,266.836,323.823,266.867"/>
<text transform="matrix(0.9994 0.0332 -0.0332 0.9994 316.5068 281.7607)" fill="#334D5C" font-family="'OpenSans-Bold'" font-size="14.9715">%</text>
<path fill="#A74436" d="M239.76,172.541h-56.458c-3.851,0-7.002-3.151-7.002-7.002v-2.205c0-3.851,3.151-7.002,7.002-7.002h56.458
	c3.852,0,7.002,3.151,7.002,7.002v2.205C246.762,169.389,243.611,172.541,239.76,172.541"/>
<path fill="#FFFFFF" d="M236.788,175.937H180.33c-3.851,0-7.002-3.151-7.002-7.002v-2.206c0-3.851,3.151-7.002,7.002-7.002h56.458
	c3.852,0,7.002,3.151,7.002,7.002v2.206C243.79,172.785,240.64,175.937,236.788,175.937"/>
<text transform="matrix(1 0 0 1 179.875 170.9116)"><tspan x="0" y="0" fill="#334D5C" font-family="'OpenSans-Bold'" font-size="9.4145">e-</tspan><tspan x="8.422" y="0" fill="#334D5C" font-family="'OpenSans-Bold'" font-size="9.4145">co</tspan><tspan x="18.903" y="0" fill="#334D5C" font-family="'OpenSans-Bold'" font-size="9.4145">mme</tspan><tspan x="42.7" y="0" fill="#334D5C" font-family="'OpenSans-Bold'" font-size="9.4145">rc</tspan><tspan x="51.628" y="0" fill="#334D5C" font-family="'OpenSans-Bold'" font-size="9.4145">e</tspan></text>
<line fill="none" stroke="#FFFFFF" stroke-width="3" stroke-linecap="round" stroke-linejoin="round" stroke-miterlimit="10" x1="209.143" y1="145.906" x2="209.143" y2="153.172"/>
<line fill="none" stroke="#FFFFFF" stroke-width="3" stroke-linecap="round" stroke-linejoin="round" stroke-miterlimit="10" x1="193.27" y1="148.348" x2="197.313" y2="154.386"/>
<line fill="none" stroke="#FFFFFF" stroke-width="3" stroke-linecap="round" stroke-linejoin="round" stroke-miterlimit="10" x1="225.33" y1="148.348" x2="221.287" y2="154.386"/>
<polygon fill="#FFFFFF" points="236.854,175.465 236.923,186.405 239.849,184.396 243.412,191.853 245.485,190.863 241.921,183.405 
	245.322,182.391 "/>
<path fill="#A74436" d="M209.794,110.314l0.015,0.035l-1.395,1.827l-2.283-0.294l-0.886-2.121l0.024-0.031
	c-0.895,0.061-1.773,0.229-2.624,0.493l0.032,0.021l-0.051,2.3l-2.019,1.105l-1.964-1.198l-0.001-0.036
	c-0.658,0.548-1.26,1.176-1.786,1.877l0.047,0l1.297,1.899l-0.997,2.07l-2.297,0.174l-0.021-0.032
	c-0.227,0.88-0.341,1.767-0.357,2.65l0.033-0.026l2.167,0.771l0.415,2.263l-1.754,1.49l-0.037-0.011
	c0.332,0.826,0.757,1.613,1.272,2.349l0.008-0.042l2.207-0.649l1.665,1.589l-0.538,2.237l-0.042,0.009
	c0.39,0.245,0.799,0.472,1.228,0.673c0.39,0.186,0.786,0.342,1.183,0.482l-0.017-0.042l1.404-1.823l2.277,0.304l0.884,2.125
	l-0.025,0.034c0.893-0.062,1.778-0.225,2.63-0.486l-0.037-0.024l0.06-2.299l2.023-1.099l1.96,1.202l-0.005,0.043
	c0.684-0.565,1.307-1.214,1.845-1.938l-0.042,0.001l-1.306-1.893l0.99-2.08l2.295-0.182l0.025,0.037
	c0.217-0.88,0.333-1.769,0.344-2.652l-0.034,0.025l-2.168-0.764l-0.421-2.259l1.747-1.497l0.034,0.011
	c-0.333-0.825-0.758-1.613-1.278-2.346l-0.007,0.039l-2.203,0.658l-1.674-1.58l0.533-2.238l0.041-0.013
	c-0.384-0.237-0.782-0.454-1.197-0.65C210.612,110.617,210.204,110.453,209.794,110.314 M210.047,123.127
	c-1.031,2.19-3.648,3.126-5.837,2.093c-2.189-1.032-3.128-3.646-2.095-5.836c1.034-2.193,3.646-3.128,5.839-2.095
	C210.143,118.322,211.08,120.935,210.047,123.127"/>
<path fill="#334D5C" d="M208.29,112.57l0.015,0.034l-1.395,1.828l-2.283-0.294l-0.886-2.121l0.025-0.031
	c-0.896,0.06-1.774,0.229-2.625,0.493l0.032,0.021l-0.051,2.3l-2.019,1.105l-1.964-1.198l-0.001-0.036
	c-0.657,0.548-1.26,1.176-1.786,1.877l0.047,0l1.297,1.899l-0.997,2.07l-2.297,0.174l-0.021-0.032
	c-0.227,0.88-0.341,1.767-0.357,2.65l0.033-0.026l2.167,0.771l0.415,2.264l-1.754,1.489l-0.036-0.011
	c0.332,0.826,0.757,1.614,1.272,2.349l0.008-0.043l2.207-0.649l1.665,1.59l-0.538,2.237l-0.042,0.009
	c0.39,0.246,0.799,0.473,1.229,0.673c0.389,0.186,0.786,0.342,1.182,0.482l-0.017-0.042l1.404-1.823l2.277,0.304l0.884,2.126
	l-0.024,0.034c0.892-0.062,1.776-0.225,2.629-0.486l-0.038-0.024l0.062-2.298l2.022-1.1l1.959,1.203l-0.005,0.043
	c0.685-0.565,1.308-1.214,1.846-1.939l-0.043,0.001l-1.305-1.893l0.99-2.08l2.295-0.182l0.024,0.037
	c0.218-0.88,0.334-1.769,0.345-2.652l-0.033,0.025l-2.169-0.764l-0.421-2.259l1.747-1.497l0.034,0.01
	c-0.333-0.825-0.758-1.613-1.278-2.346l-0.008,0.039l-2.202,0.657l-1.674-1.579l0.533-2.238l0.041-0.014
	c-0.384-0.237-0.781-0.454-1.197-0.65C209.108,112.873,208.7,112.708,208.29,112.57 M208.543,125.383
	c-1.032,2.19-3.648,3.126-5.837,2.093c-2.189-1.032-3.127-3.646-2.095-5.836c1.033-2.193,3.646-3.128,5.838-2.096
	C208.639,120.578,209.576,123.191,208.543,125.383"/>
<path fill="#A74436" d="M184.208,121.628l0.015,0.024l-0.796,1.487l-1.689,0.055l-0.89-1.433l0.014-0.026
	c-0.643,0.148-1.259,0.374-1.845,0.664l0.026,0.012l0.233,1.673l-1.333,1.037l-1.564-0.637l-0.004-0.027
	c-0.413,0.475-0.776,1-1.076,1.57l0.035-0.005l1.163,1.225l-0.481,1.617l-1.644,0.396l-0.02-0.022
	c-0.061,0.665-0.04,1.32,0.052,1.962l0.02-0.022l1.662,0.305l0.567,1.592l-1.097,1.285l-0.028-0.004
	c0.337,0.56,0.738,1.081,1.197,1.554l0.002-0.032l1.522-0.728l1.393,0.956l-0.127,1.685l-0.029,0.01
	c0.311,0.133,0.634,0.25,0.969,0.345c0.304,0.088,0.609,0.156,0.914,0.211l-0.017-0.028l0.804-1.486l1.686-0.047l0.89,1.438
	l-0.015,0.027c0.64-0.15,1.264-0.371,1.849-0.661l-0.029-0.013l-0.227-1.673l1.338-1.034l1.561,0.642l0.001,0.032
	c0.43-0.49,0.805-1.033,1.11-1.622l-0.03,0.006l-1.167-1.218l0.474-1.624l1.642-0.4l0.022,0.024
	c0.055-0.663,0.035-1.321-0.061-1.962l-0.021,0.021l-1.661-0.299l-0.57-1.59l1.091-1.288l0.025,0.003
	c-0.338-0.558-0.738-1.081-1.201-1.55v0.029l-1.52,0.735l-1.398-0.948l0.125-1.685l0.028-0.015c-0.306-0.127-0.62-0.238-0.944-0.331
	C184.837,121.752,184.521,121.681,184.208,121.628 M185.892,130.885c-0.491,1.709-2.278,2.694-3.985,2.201
	c-1.708-0.491-2.694-2.276-2.202-3.984c0.492-1.71,2.276-2.695,3.986-2.203C185.398,127.391,186.384,129.175,185.892,130.885"/>
<path fill="#FFFFFF" d="M182.599,124.042l0.015,0.024l-0.796,1.487l-1.689,0.055l-0.891-1.433l0.015-0.026
	c-0.643,0.149-1.259,0.374-1.845,0.665l0.026,0.012l0.233,1.673l-1.333,1.037l-1.564-0.637l-0.004-0.027
	c-0.413,0.475-0.776,1-1.076,1.57l0.035-0.005l1.162,1.225l-0.48,1.617l-1.644,0.395l-0.02-0.021
	c-0.061,0.665-0.04,1.32,0.052,1.962l0.02-0.021l1.661,0.304l0.567,1.593l-1.097,1.284l-0.028-0.003
	c0.338,0.56,0.738,1.081,1.197,1.553l0.002-0.032l1.522-0.728l1.392,0.956l-0.127,1.685l-0.029,0.01
	c0.311,0.133,0.634,0.25,0.969,0.345c0.304,0.088,0.609,0.156,0.914,0.211l-0.018-0.028l0.804-1.486l1.687-0.047l0.89,1.438
	l-0.015,0.027c0.64-0.15,1.264-0.371,1.849-0.661L184.923,140l-0.227-1.672l1.337-1.034l1.561,0.642l0.002,0.032
	c0.429-0.49,0.805-1.034,1.11-1.622l-0.03,0.006l-1.167-1.218l0.474-1.625l1.642-0.4l0.022,0.024
	c0.055-0.663,0.035-1.321-0.061-1.962l-0.021,0.021l-1.661-0.299l-0.57-1.589l1.091-1.289l0.025,0.004
	c-0.338-0.558-0.738-1.081-1.201-1.55v0.029l-1.52,0.735l-1.398-0.948l0.124-1.685l0.028-0.015c-0.306-0.127-0.62-0.238-0.944-0.33
	C183.228,124.166,182.912,124.095,182.599,124.042 M184.283,133.298c-0.491,1.709-2.278,2.694-3.985,2.201
	c-1.708-0.492-2.693-2.277-2.201-3.984c0.492-1.71,2.276-2.696,3.986-2.203C183.79,129.805,184.775,131.588,184.283,133.298"/>
<path fill="#A74436" d="M261.082,139.544l0.012,0.021l-0.71,1.327l-1.508,0.049l-0.795-1.28l0.013-0.022
	c-0.574,0.132-1.125,0.333-1.647,0.593l0.023,0.011l0.207,1.493l-1.19,0.926l-1.396-0.569l-0.005-0.023
	c-0.368,0.424-0.692,0.893-0.96,1.401l0.03-0.004l1.039,1.094l-0.43,1.443l-1.468,0.353l-0.018-0.019
	c-0.055,0.593-0.036,1.179,0.046,1.752l0.019-0.02l1.482,0.271l0.507,1.422l-0.98,1.147l-0.024-0.003
	c0.302,0.5,0.659,0.965,1.068,1.387l0.002-0.029l1.359-0.65l1.243,0.854l-0.114,1.504l-0.025,0.009
	c0.277,0.119,0.566,0.223,0.864,0.307c0.272,0.079,0.545,0.14,0.816,0.188l-0.016-0.025l0.719-1.327l1.505-0.042l0.795,1.283
	l-0.014,0.024c0.571-0.134,1.128-0.331,1.65-0.589l-0.026-0.012l-0.201-1.493l1.193-0.923l1.395,0.573l0.001,0.028
	c0.384-0.438,0.719-0.923,0.992-1.448l-0.027,0.005l-1.043-1.088l0.423-1.45l1.467-0.357l0.02,0.021
	c0.048-0.592,0.03-1.18-0.055-1.752l-0.02,0.02l-1.482-0.267l-0.509-1.419l0.974-1.15l0.022,0.003
	c-0.301-0.498-0.658-0.965-1.072-1.384v0.025l-1.356,0.657l-1.249-0.847l0.111-1.504l0.025-0.013
	c-0.273-0.114-0.554-0.212-0.843-0.295C261.644,139.655,261.361,139.591,261.082,139.544 M262.585,147.808
	c-0.438,1.526-2.034,2.405-3.559,1.965c-1.524-0.439-2.404-2.033-1.965-3.557c0.439-1.527,2.032-2.406,3.559-1.967
	C262.145,144.689,263.024,146.282,262.585,147.808"/>
<path fill="#EFC94C" d="M259.645,141.699l0.014,0.021l-0.711,1.327l-1.508,0.049l-0.795-1.28l0.013-0.023
	c-0.574,0.133-1.124,0.334-1.647,0.593l0.022,0.01l0.208,1.493l-1.19,0.926l-1.396-0.569l-0.005-0.024
	c-0.368,0.424-0.692,0.893-0.96,1.401l0.03-0.004l1.038,1.094l-0.429,1.443l-1.468,0.353l-0.018-0.019
	c-0.055,0.593-0.036,1.178,0.046,1.751l0.018-0.02l1.484,0.272l0.505,1.422l-0.979,1.146l-0.025-0.003
	c0.301,0.5,0.659,0.965,1.069,1.387l0.001-0.028l1.359-0.65l1.243,0.854l-0.113,1.504l-0.026,0.009
	c0.277,0.119,0.565,0.223,0.865,0.307c0.271,0.079,0.544,0.139,0.815,0.188l-0.016-0.025l0.718-1.327l1.506-0.042l0.795,1.283
	l-0.014,0.024c0.571-0.134,1.128-0.331,1.65-0.589l-0.025-0.012l-0.202-1.493l1.194-0.923l1.393,0.573l0.002,0.028
	c0.384-0.438,0.719-0.922,0.992-1.447l-0.027,0.005l-1.043-1.088l0.423-1.45l1.466-0.358l0.021,0.021
	c0.048-0.591,0.03-1.179-0.055-1.752l-0.02,0.02l-1.482-0.267l-0.509-1.419l0.974-1.15l0.023,0.003
	c-0.302-0.499-0.659-0.965-1.073-1.384v0.025l-1.356,0.657l-1.249-0.847l0.112-1.504l0.024-0.013
	c-0.273-0.114-0.554-0.213-0.843-0.295C260.207,141.81,259.925,141.746,259.645,141.699 M261.148,149.963
	c-0.438,1.526-2.034,2.405-3.558,1.965c-1.525-0.438-2.406-2.032-1.966-3.557c0.439-1.527,2.032-2.407,3.559-1.967
	C260.709,146.844,261.588,148.437,261.148,149.963"/>
<path fill="#A74436" d="M234.01,118.165c-5.351,0.992-8.897,6.152-7.906,11.503c0.992,5.352,6.152,8.898,11.504,7.906
	c5.351-0.992,8.897-6.152,7.905-11.503C244.521,120.72,239.36,117.174,234.01,118.165 M226.696,129.835l3.334-0.618
	c0.294,1.395,0.849,2.694,1.617,3.843l-3.155,0.585C227.633,132.561,227.006,131.271,226.696,129.835 M235.181,122.984l-0.724-3.901
	c1.741,0.68,3.242,1.803,4.377,3.224L235.181,122.984z M239.2,122.794c0.807,1.142,1.388,2.449,1.687,3.857l-4.86,0.901
	l-0.747-4.032L239.2,122.794z M234.644,123.083l-3.817,0.708c0.568-1.793,1.618-3.43,3.076-4.709L234.644,123.083z M234.743,123.62
	l0.747,4.031l-5.023,0.931c-0.226-1.421-0.152-2.851,0.191-4.206L234.743,123.62z M229.931,128.682l-3.334,0.618
	c-0.227-1.461-0.101-2.901,0.32-4.229l3.155-0.585C229.761,125.843,229.704,127.266,229.931,128.682 M230.566,129.119l5.023-0.931
	l0.742,4.005l-4.098,0.759C231.438,131.816,230.863,130.518,230.566,129.119 M236.432,132.729l0.746,4.029
	c-1.831-0.676-3.404-1.836-4.579-3.318L236.432,132.729z M236.968,132.629l3.669-0.68c-0.547,1.745-1.55,3.342-2.941,4.608
	L236.968,132.629z M236.868,132.093l-0.742-4.005l4.86-0.9c0.224,1.413,0.153,2.831-0.185,4.176L236.868,132.093z M241.522,127.088
	l3.497-0.648c0.226,1.45,0.102,2.88-0.312,4.2l-3.319,0.615C241.694,129.907,241.747,128.495,241.522,127.088 M241.423,126.552
	c-0.296-1.403-0.858-2.711-1.637-3.867l3.319-0.615c0.869,1.09,1.503,2.388,1.814,3.834L241.423,126.552z M242.696,121.591
	l-3.259,0.604c-1.193-1.58-2.809-2.831-4.696-3.586C237.799,118.255,240.729,119.441,242.696,121.591 M233.301,118.891
	c-1.48,1.378-2.532,3.118-3.078,5.012l-3.095,0.574C228.171,121.821,230.409,119.696,233.301,118.891 M228.898,134.125l3.098-0.575
	c1.189,1.584,2.8,2.84,4.688,3.601C233.685,137.436,230.823,136.245,228.898,134.125 M238.133,136.897
	c1.5-1.389,2.562-3.146,3.106-5.06l3.262-0.604C243.441,133.959,241.124,136.129,238.133,136.897"/>
<path fill="#FFFFFF" d="M232.885,119.009c-5.352,0.992-8.897,6.152-7.906,11.503c0.992,5.352,6.152,8.898,11.504,7.906
	c5.351-0.992,8.896-6.152,7.905-11.503C243.396,121.564,238.235,118.018,232.885,119.009 M225.571,130.679l3.334-0.618
	c0.294,1.394,0.85,2.694,1.617,3.843l-3.155,0.584C226.508,133.404,225.881,132.114,225.571,130.679 M234.055,123.828l-0.723-3.901
	c1.742,0.68,3.242,1.803,4.376,3.224L234.055,123.828z M238.075,123.638c0.807,1.141,1.388,2.449,1.687,3.857l-4.86,0.901
	l-0.747-4.032L238.075,123.638z M233.519,123.927l-3.816,0.708c0.568-1.793,1.617-3.43,3.075-4.709L233.519,123.927z
	 M233.618,124.464l0.747,4.031l-5.023,0.931c-0.226-1.422-0.151-2.851,0.192-4.206L233.618,124.464z M228.806,129.526l-3.334,0.618
	c-0.227-1.461-0.101-2.901,0.32-4.229l3.155-0.585C228.636,126.687,228.579,128.11,228.806,129.526 M229.44,129.962l5.024-0.931
	l0.742,4.005l-4.098,0.759C230.313,132.66,229.738,131.362,229.44,129.962 M235.307,133.572l0.747,4.029
	c-1.832-0.676-3.405-1.836-4.58-3.318L235.307,133.572z M235.843,133.473l3.669-0.681c-0.547,1.745-1.549,3.341-2.941,4.608
	L235.843,133.473z M235.743,132.937l-0.742-4.005l4.86-0.901c0.224,1.414,0.153,2.832-0.184,4.177L235.743,132.937z
	 M240.397,127.932l3.497-0.648c0.226,1.45,0.102,2.88-0.312,4.2l-3.318,0.615C240.57,130.751,240.623,129.339,240.397,127.932
	 M240.298,127.396c-0.296-1.403-0.858-2.711-1.636-3.867l3.318-0.615c0.869,1.089,1.503,2.389,1.814,3.834L240.298,127.396z
	 M241.571,122.435l-3.259,0.604c-1.193-1.579-2.808-2.83-4.695-3.586C236.674,119.099,239.604,120.285,241.571,122.435
	 M232.177,119.735c-1.481,1.378-2.533,3.118-3.079,5.012l-3.095,0.573C227.046,122.665,229.284,120.54,232.177,119.735
	 M227.773,134.969l3.098-0.575c1.189,1.584,2.8,2.84,4.688,3.601C232.56,138.279,229.699,137.089,227.773,134.969 M237.008,137.741
	c1.501-1.39,2.562-3.146,3.107-5.06l3.261-0.604C242.316,134.802,239.999,136.973,237.008,137.741"/>
<path fill="#A74436" d="M225.724,75.045l-43.407,7.935l3.375,18.461l43.408-7.935l6.147-10.664L225.724,75.045z M228.406,85.912
	c-0.941,0-1.703-0.763-1.703-1.703c0-0.941,0.762-1.703,1.703-1.703c0.94,0,1.703,0.762,1.703,1.703
	C230.109,85.149,229.347,85.912,228.406,85.912"/>
<path fill="#EFC94C" d="M224.285,79.069l-43.407,7.935l3.375,18.461l43.407-7.936l6.147-10.663L224.285,79.069z M226.968,89.936
	c-0.94,0-1.703-0.762-1.703-1.703c0-0.94,0.763-1.703,1.703-1.703c0.941,0,1.703,0.763,1.703,1.703
	C228.671,89.173,227.909,89.936,226.968,89.936"/>
<text transform="matrix(0.9837 -0.1798 0.1798 0.9837 188.6636 100.0293)"><tspan x="0" y="0" fill="#334D5C" font-family="'OpenSans-Bold'" font-size="13.0746">SAL</tspan><tspan x="23.255" y="0" fill="#334D5C" font-family="'OpenSans-Bold'" font-size="13.0746">E</tspan><tspan x="30.448" y="0" fill="#334D5C" font-family="'OpenSans-Bold'" font-size="13.0746">!</tspan></text>
<path fill="#A74436" d="M175.91,106.813l-11.978-11.977c-0.005-0.006-0.012-0.01-0.017-0.016c1.707-2.174,2.729-4.913,2.729-7.892
	c0-7.064-5.727-12.791-12.791-12.791c-7.065,0-12.791,5.727-12.791,12.791c0,7.064,5.726,12.792,12.791,12.792
	c2.22,0,4.308-0.566,6.127-1.562c0.085,0.121,0.179,0.237,0.286,0.345l11.978,11.977c1.008,1.008,2.658,1.008,3.667,0
	S176.918,107.822,175.91,106.813"/>
<path fill="#FFFFFF" d="M172.811,107.632l-11.978-11.978c-0.006-0.005-0.012-0.01-0.018-0.016c1.707-2.174,2.729-4.913,2.729-7.892
	c0-7.064-5.727-12.792-12.791-12.792c-7.065,0-12.792,5.727-12.792,12.792c0,7.064,5.727,12.791,12.792,12.791
	c2.22,0,4.307-0.566,6.127-1.561c0.085,0.12,0.178,0.236,0.286,0.344l11.978,11.977c1.009,1.008,2.659,1.008,3.667,0
	S173.819,108.641,172.811,107.632"/>
<path fill="#45B29D" d="M161.47,87.748c0,5.918-4.798,10.717-10.717,10.717s-10.717-4.798-10.717-10.717
	c0-5.919,4.798-10.717,10.717-10.717S161.47,81.829,161.47,87.748"/>
<g opacity="0.41">
	<g>
		<defs>
			<rect id="SVGID_1_" x="141.229" y="78.223" width="11.495" height="11.495"/>
		</defs>
		<clipPath id="SVGID_2_">
			<use xlink:href="#SVGID_1_"  overflow="visible"/>
		</clipPath>
		<path clip-path="url(#SVGID_2_)" fill="#FFFFFF" d="M142.507,89.717c-0.707,0-1.279-0.572-1.279-1.278
			c0-5.633,4.583-10.216,10.216-10.216c0.707,0,1.278,0.573,1.278,1.279s-0.572,1.278-1.278,1.278c-4.223,0-7.659,3.436-7.659,7.659
			C143.785,89.146,143.213,89.717,142.507,89.717"/>
	</g>
</g>
<path fill="#A74436" d="M293.003,94.333l-36.699-9.655c-0.966-0.254-1.964,0.328-2.218,1.294l-5.831,22.163
	c-0.254,0.965,0.329,1.963,1.294,2.217l36.7,9.655c0.965,0.254,1.963-0.328,2.217-1.294l5.021-19.085l0.397-1.51l0.412-1.568
	C294.551,95.585,293.969,94.587,293.003,94.333"/>
<path fill="#FFFFFF" d="M281.257,122.73l-36.699-9.655c-0.966-0.254-1.548-1.252-1.294-2.217l5.831-22.163
	c0.254-0.966,1.252-1.548,2.217-1.293l36.7,9.655c0.965,0.254,1.548,1.251,1.293,2.217l-5.83,22.163
	C283.22,122.402,282.223,122.984,281.257,122.73"/>
<rect x="247.314" y="95.464" transform="matrix(0.9671 0.2544 -0.2544 0.9671 33.797 -64.9853)" fill="#334D5C" width="41.578" height="5.376"/>
<path fill="#45B29D" d="M254.13,104.235l-5.941-1.563c-0.42-0.11-0.673-0.544-0.563-0.964l0.953-3.624
	c0.111-0.42,0.545-0.673,0.965-0.563l5.941,1.563c0.42,0.11,0.674,0.545,0.563,0.964l-0.953,3.624
	C254.984,104.092,254.551,104.345,254.13,104.235"/>
<rect x="245.917" y="110.933" transform="matrix(0.9671 0.2544 -0.2544 0.9671 36.6287 -60.2033)" fill="#45B29D" width="10.236" height="1.113"/>
<rect x="258.598" y="114.269" transform="matrix(0.9671 0.2544 -0.2544 0.9671 37.8907 -63.3148)" fill="#45B29D" width="10.237" height="1.113"/>
<rect x="270.989" y="117.529" transform="matrix(0.9671 0.2544 -0.2544 0.9671 39.1321 -66.3655)" fill="#45B29D" width="10.236" height="1.112"/>
<rect x="264.97" y="93.991" transform="matrix(0.9671 0.2544 -0.2544 0.9671 32.8702 -65.3619)" fill="#45B29D" width="8.25" height="0.779"/>
<rect x="257.022" y="102.494" transform="matrix(0.9671 0.2544 -0.2544 0.9671 35.1862 -63.8208)" fill="#45B29D" width="14.56" height="3.226"/>
<path fill="#45B29D" d="M280.392,105.366c-2.361-0.622-4.789,0.793-5.41,3.155c-0.623,2.361,0.793,4.789,3.154,5.411
	c2.361,0.622,4.789-0.793,5.411-3.155S282.754,105.988,280.392,105.366 M275.189,108.702l1.471,0.388
	c-0.147,0.622-0.171,1.256-0.079,1.869l-1.393-0.367C275.048,109.988,275.04,109.344,275.189,108.702 M279.944,107.546l0.453-1.722
	c0.577,0.609,0.972,1.353,1.159,2.146L279.944,107.546z M281.612,108.238c0.108,0.618,0.094,1.26-0.054,1.888l-2.146-0.565
	l0.469-1.779L281.612,108.238z M279.708,107.484l-1.686-0.444c0.574-0.619,1.313-1.083,2.15-1.323L279.708,107.484z M279.645,107.72
	l-0.468,1.779l-2.218-0.584c0.181-0.62,0.484-1.186,0.884-1.67L279.645,107.72z M276.723,108.853l-1.472-0.387
	c0.188-0.637,0.515-1.197,0.94-1.656l1.393,0.367C277.197,107.668,276.901,108.235,276.723,108.853 M276.896,109.152l2.218,0.584
	l-0.465,1.767l-1.81-0.476C276.734,110.414,276.75,109.777,276.896,109.152 M278.586,111.74l-0.468,1.778
	c-0.614-0.625-1.03-1.396-1.224-2.223L278.586,111.74z M278.823,111.802l1.619,0.427c-0.556,0.604-1.269,1.06-2.076,1.308
	L278.823,111.802z M278.885,111.566l0.466-1.768l2.145,0.565c-0.179,0.616-0.479,1.178-0.874,1.66L278.885,111.566z
	 M281.732,110.426l1.543,0.406c-0.186,0.632-0.509,1.189-0.93,1.645l-1.465-0.386C281.263,111.603,281.555,111.04,281.732,110.426
	 M281.795,110.189c0.148-0.626,0.17-1.265,0.076-1.883l1.465,0.385c0.144,0.609,0.152,1.257,0.002,1.904L281.795,110.189z
	 M283.262,108.419l-1.438-0.378c-0.182-0.87-0.598-1.687-1.22-2.355C281.912,106.127,282.875,107.17,283.262,108.419
	 M279.965,105.524c-0.864,0.277-1.625,0.781-2.209,1.445l-1.365-0.36C277.322,105.731,278.638,105.298,279.965,105.524
	 M275.262,110.864l1.367,0.36c0.18,0.871,0.592,1.689,1.213,2.359C276.57,113.125,275.637,112.094,275.262,110.864 M278.479,113.758
	c0.875-0.277,1.643-0.787,2.229-1.459l1.439,0.379C281.195,113.582,279.84,114.019,278.479,113.758"/>
<path fill="#A74436" d="M108.592,88.384c-10.458,1.938-17.39,12.023-15.452,22.482c1.938,10.458,12.024,17.39,22.482,15.452
	c10.458-1.938,17.39-12.024,15.452-22.482C129.135,93.377,119.05,86.446,108.592,88.384 M94.299,111.194l6.515-1.208
	c0.575,2.725,1.66,5.265,3.162,7.51l-6.167,1.143C96.129,116.52,94.903,113.998,94.299,111.194 M110.879,97.802l-1.414-7.625
	c3.404,1.33,6.338,3.524,8.554,6.302L110.879,97.802z M118.736,97.43c1.576,2.231,2.711,4.788,3.296,7.539l-9.499,1.761l-1.46-7.88
	L118.736,97.43z M109.832,97.997l-7.46,1.383c1.11-3.505,3.161-6.704,6.011-9.204L109.832,97.997z M110.025,99.044l1.46,7.88
	l-9.819,1.82c-0.44-2.779-0.296-5.572,0.376-8.22L110.025,99.044z M100.619,108.938l-6.515,1.208
	c-0.444-2.856-0.197-5.67,0.625-8.266l6.167-1.143C100.287,103.39,100.177,106.171,100.619,108.938 M101.861,109.792l9.819-1.82
	l1.451,7.827l-8.008,1.484C103.565,115.065,102.442,112.526,101.861,109.792 M113.325,116.847l1.459,7.874
	c-3.58-1.32-6.654-3.588-8.951-6.485L113.325,116.847z M114.373,116.653l7.171-1.329c-1.069,3.41-3.028,6.53-5.748,9.007
	L114.373,116.653z M114.179,115.605l-1.451-7.827l9.499-1.761c0.438,2.761,0.3,5.534-0.36,8.163L114.179,115.605z M123.274,105.823
	l6.835-1.266c0.441,2.834,0.2,5.628-0.608,8.208l-6.487,1.202C123.612,111.333,123.714,108.573,123.274,105.823 M123.08,104.775
	c-0.578-2.742-1.677-5.299-3.198-7.557l6.487-1.203c1.698,2.129,2.938,4.668,3.546,7.493L123.08,104.775z M125.569,95.08
	l-6.369,1.18c-2.333-3.087-5.488-5.532-9.178-7.009C115.997,88.56,121.726,90.877,125.569,95.08 M107.208,89.802
	c-2.896,2.694-4.951,6.095-6.018,9.796l-6.048,1.122C97.18,95.528,101.555,91.376,107.208,89.802 M98.602,119.576l6.054-1.122
	c2.324,3.095,5.473,5.55,9.162,7.037C107.957,126.047,102.365,123.72,98.602,119.576 M116.65,124.995
	c2.932-2.716,5.006-6.149,6.072-9.889l6.374-1.181C127.025,119.251,122.496,123.493,116.65,124.995"/>
<path fill="#EFC94C" d="M106.393,90.033c-10.458,1.938-17.389,12.023-15.451,22.482c1.939,10.458,12.024,17.39,22.482,15.452
	c10.459-1.939,17.39-12.024,15.452-22.482C126.937,95.026,116.852,88.095,106.393,90.033 M92.1,112.843l6.515-1.208
	c0.575,2.724,1.66,5.265,3.162,7.51l-6.167,1.143C93.93,118.168,92.704,115.646,92.1,112.843 M108.68,99.452l-1.413-7.625
	c3.404,1.329,6.337,3.524,8.553,6.301L108.68,99.452z M116.538,99.08c1.576,2.23,2.712,4.787,3.296,7.539l-9.499,1.761l-1.46-7.879
	L116.538,99.08z M107.632,99.646l-7.46,1.382c1.11-3.505,3.161-6.704,6.011-9.204L107.632,99.646z M107.827,100.694l1.46,7.879
	l-9.819,1.82c-0.44-2.779-0.296-5.572,0.376-8.22L107.827,100.694z M98.42,110.587l-6.515,1.208
	c-0.444-2.856-0.197-5.67,0.625-8.266l6.167-1.143C98.088,105.039,97.979,107.82,98.42,110.587 M99.663,111.441l9.819-1.82
	l1.451,7.827l-8.008,1.484C101.367,116.714,100.244,114.175,99.663,111.441 M111.126,118.496l1.459,7.875
	c-3.58-1.321-6.653-3.588-8.95-6.486L111.126,118.496z M112.174,118.302l7.171-1.329c-1.069,3.41-3.028,6.53-5.748,9.007
	L112.174,118.302z M111.98,117.254l-1.451-7.827l9.499-1.761c0.438,2.761,0.3,5.534-0.36,8.163L111.98,117.254z M121.076,107.472
	l6.835-1.267c0.441,2.834,0.199,5.628-0.608,8.208l-6.487,1.202C121.413,112.982,121.516,110.221,121.076,107.472 M120.882,106.424
	c-0.579-2.742-1.678-5.299-3.198-7.558l6.487-1.202c1.698,2.129,2.938,4.668,3.546,7.493L120.882,106.424z M123.371,96.729
	l-6.369,1.181c-2.332-3.087-5.488-5.533-9.178-7.009C113.798,90.208,119.527,92.527,123.371,96.729 M105.009,91.451
	c-2.895,2.694-4.951,6.095-6.018,9.796l-6.048,1.122C94.981,97.177,99.357,93.025,105.009,91.451 M96.403,121.225l6.054-1.122
	c2.324,3.095,5.473,5.55,9.162,7.037C105.758,127.696,100.167,125.369,96.403,121.225 M114.452,126.644
	c2.932-2.716,5.005-6.149,6.071-9.889l6.374-1.181C124.827,120.9,120.297,125.142,114.452,126.644"/>
<path fill="#A74436" d="M346.41,121.154c0.225-1.228-0.596-2.416-1.823-2.641l-2.226-0.407l1.578,0.287c0,0,3.688-5.822-3.985-7.227
	c-5.642-1.033-10.561,0.081-12.772,0.744c-1.833-1.403-6.038-4.188-11.68-5.221c-7.674-1.405-6.287,5.347-6.287,5.347l1.579,0.291
	l-2.363-0.432c-1.228-0.225-2.416,0.596-2.641,1.823l-0.011,0.059l-2.783,15.203l-0.003,0l-1.063,5.803l0.003,0l-2.773,15.151
	c-0.225,1.228,0.596,2.416,1.823,2.641l15.177,2.778l-0.005,0.029l5.803,1.063l0.005-0.029l15.177,2.778
	c1.228,0.225,2.416-0.595,2.642-1.823l2.772-15.151l0.004,0l1.063-5.803l-0.004,0l2.712-14.81L346.41,121.154z"/>
<path fill="#334D5C" d="M331.658,162.817l-36.157-6.62c-1.228-0.225-2.048-1.413-1.823-2.64l6.619-36.157
	c0.225-1.228,1.413-2.048,2.641-1.823l36.156,6.62c1.228,0.224,2.048,1.413,1.823,2.64l-6.619,36.157
	C334.073,162.222,332.886,163.042,331.658,162.817"/>
<path fill="#45B29D" d="M340.183,128.851l0.745-4.072c0.226-1.228-0.596-2.416-1.822-2.641l-36.157-6.619
	c-1.228-0.225-2.415,0.596-2.641,1.824l-0.745,4.072L340.183,128.851z"/>
<rect x="314.398" y="117.968" transform="matrix(0.9836 0.1801 -0.1801 0.9836 30.211 -54.8853)" fill="#EFC94C" width="5.899" height="41.912"/>
<rect x="314.343" y="118.573" transform="matrix(-0.1801 0.9836 -0.9836 -0.1801 511.3861 -147.8052)" fill="#EFC94C" width="5.899" height="41.301"/>
<path fill="#EFC94C" d="M320.455,115.954c0,0,6.344-2.568,14.018-1.164c7.673,1.405,3.984,7.228,3.984,7.228l-19.062-3.466
	L320.455,115.954z"/>
<path fill="#EFC94C" d="M322.715,116.368c0,0-5.022-4.649-12.695-6.054c-7.674-1.405-6.287,5.347-6.287,5.347l19.053,3.512
	L322.715,116.368z"/>
<path fill="#A74436" d="M79.682,108.58l0.013,0.03l-1.223,1.603l-2.004-0.258l-0.776-1.861l0.022-0.027
	c-0.786,0.053-1.557,0.201-2.303,0.433l0.028,0.018l-0.044,2.018l-1.771,0.97l-1.724-1.051l-0.001-0.032
	c-0.577,0.48-1.105,1.032-1.567,1.647l0.041,0l1.138,1.666l-0.875,1.816l-2.016,0.152l-0.019-0.028
	c-0.199,0.772-0.299,1.55-0.313,2.325l0.029-0.023l1.902,0.677l0.364,1.986l-1.539,1.307l-0.032-0.01
	c0.291,0.725,0.664,1.416,1.116,2.061l0.007-0.037l1.936-0.57l1.461,1.395l-0.473,1.962l-0.036,0.008
	c0.341,0.215,0.701,0.414,1.078,0.59c0.342,0.163,0.689,0.299,1.038,0.423l-0.015-0.037l1.232-1.6l1.998,0.267l0.775,1.865
	l-0.022,0.029c0.782-0.054,1.56-0.196,2.307-0.426l-0.033-0.021l0.053-2.016l1.774-0.964l1.719,1.055l-0.004,0.038
	c0.6-0.496,1.146-1.065,1.619-1.701l-0.038,0l-1.145-1.661l0.868-1.825l2.013-0.16l0.022,0.033c0.19-0.772,0.292-1.553,0.302-2.327
	l-0.03,0.021l-1.902-0.67l-0.37-1.982l1.533-1.313l0.03,0.009c-0.292-0.723-0.665-1.416-1.122-2.058l-0.006,0.034l-1.932,0.577
	l-1.469-1.385l0.468-1.964l0.037-0.012c-0.337-0.208-0.686-0.398-1.051-0.57C80.4,108.846,80.042,108.701,79.682,108.58
	 M79.904,119.821c-0.905,1.922-3.2,2.743-5.12,1.837c-1.921-0.906-2.745-3.2-1.838-5.121c0.907-1.924,3.2-2.745,5.122-1.838
	C79.988,115.605,80.811,117.898,79.904,119.821"/>
<path fill="#EFC94C" d="M78.363,110.559l0.013,0.031l-1.223,1.603l-2.004-0.258l-0.776-1.861l0.021-0.027
	c-0.785,0.053-1.557,0.2-2.303,0.433l0.028,0.018l-0.045,2.018l-1.77,0.97l-1.724-1.051l-0.001-0.032
	c-0.577,0.48-1.105,1.032-1.567,1.647l0.041,0l1.138,1.667l-0.875,1.815l-2.016,0.152l-0.018-0.028c-0.2,0.772-0.3,1.55-0.314,2.324
	l0.029-0.023l1.902,0.677l0.363,1.986l-1.539,1.307l-0.032-0.01c0.291,0.725,0.664,1.416,1.116,2.061l0.007-0.037l1.936-0.569
	l1.461,1.395l-0.472,1.962l-0.037,0.008c0.342,0.215,0.701,0.415,1.078,0.59c0.341,0.163,0.689,0.299,1.037,0.423l-0.015-0.037
	l1.233-1.599l1.998,0.267l0.775,1.865l-0.022,0.03c0.782-0.055,1.56-0.197,2.307-0.426l-0.033-0.021l0.053-2.016l1.775-0.964
	l1.719,1.055l-0.004,0.038c0.6-0.496,1.146-1.065,1.619-1.7l-0.038,0l-1.145-1.661l0.869-1.825l2.013-0.159l0.022,0.033
	c0.191-0.772,0.292-1.552,0.302-2.327l-0.03,0.022l-1.902-0.67l-0.37-1.982l1.533-1.313l0.029,0.009
	c-0.292-0.723-0.664-1.415-1.122-2.058l-0.006,0.034l-1.932,0.577l-1.47-1.386l0.469-1.963l0.036-0.012
	c-0.337-0.208-0.686-0.398-1.051-0.57C79.081,110.825,78.723,110.68,78.363,110.559 M78.584,121.8
	c-0.905,1.922-3.201,2.743-5.121,1.836c-1.921-0.906-2.744-3.2-1.838-5.12c0.907-1.924,3.199-2.745,5.122-1.839
	C78.668,117.584,79.491,119.877,78.584,121.8"/>
<rect x="273.702" y="169.277" transform="matrix(0.9664 0.2571 -0.2571 0.9664 55.2453 -70.1737)" fill="#4FC1AB" width="44.599" height="13.843"/>
<text transform="matrix(0.9664 0.2571 -0.2571 0.9664 277.2822 175.2129)"><tspan x="0" y="0" fill="#FFFFFF" font-family="'OpenSans-Bold'" font-size="10.6351">5</tspan><tspan x="5.974" y="0" fill="#FFFFFF" font-family="'OpenSans-Bold'" font-size="10.6351">0</tspan></text>
<text transform="matrix(0.9664 0.2571 -0.2571 0.9664 289.7197 174.8574)" fill="#FFFFFF" font-family="'OpenSans-Bold'" font-size="6.2003">%</text>
<text transform="matrix(0.9664 0.2571 -0.2571 0.9664 294.1475 179.6992)"><tspan x="0" y="0" fill="#FFFFFF" font-family="'OpenSans-Bold'" font-size="10.6351">OF</tspan><tspan x="14.11" y="0" fill="#FFFFFF" font-family="'OpenSans-Bold'" font-size="10.6351">F</tspan></text>
</svg>
